<svg xmlns="http://www.w3.org/2000/svg" viewBox="0 0 512 512">
  <defs>
    <radialGradient id="g" cx="35%" cy="28%" r="75%">
      <stop offset="0" stop-color="#8fe3ff"/>
      <stop offset=".55" stop-color="#198bd2"/>
      <stop offset="1" stop-color="#15335b"/>
    </radialGradient>
  </defs>
  <rect width="512" height="512" rx="112" fill="#07111f"/>
  <circle cx="256" cy="246" r="154" fill="url(#g)" stroke="#bcecff" stroke-width="14"/>
  <path d="M116 238c62-40 122-46 180-18 45 22 78 22 112 8M139 311c55 1 97-12 128-39 42-36 80-42 125-20" fill="none" stroke="#d9f4ff" stroke-opacity=".7" stroke-width="13" stroke-linecap="round"/>
  <path d="M255 120v278M103 247h306M124 184c70-54 176-61 260-17M126 315c75 48 180 50 256 5" fill="none" stroke="#d9f4ff" stroke-opacity=".5" stroke-width="8"/>
  <path d="M256 442c-24-31-66-80-66-126 0-39 30-70 66-70s66 31 66 70c0 46-42 95-66 126Z" fill="#ffcf5a" stroke="#fff2c4" stroke-width="12"/>
  <circle cx="256" cy="314" r="28" fill="#07111f"/>
</svg>